<svg width="24" height="24" viewBox="0 0 24 24" fill="none" xmlns="http://www.w3.org/2000/svg">
<path d="M18.0007 10.8018H8.89266L12.8527 6.85379C13.0786 6.62782 13.2056 6.32135 13.2056 6.00179C13.2056 5.68222 13.0786 5.37575 12.8527 5.14979C12.6267 4.92382 12.3202 4.79688 12.0007 4.79688C11.6811 4.79688 11.3746 4.92382 11.1487 5.14979L5.14866 11.1498C5.03941 11.2639 4.95377 11.3985 4.89666 11.5458C4.77664 11.8379 4.77664 12.1656 4.89666 12.4578C4.95377 12.6051 5.03941 12.7397 5.14866 12.8538L11.1487 18.8538C11.2602 18.9663 11.3929 19.0555 11.5392 19.1165C11.6854 19.1774 11.8422 19.2087 12.0007 19.2087C12.1591 19.2087 12.3159 19.1774 12.4621 19.1165C12.6084 19.0555 12.7411 18.9663 12.8527 18.8538C12.9651 18.7422 13.0544 18.6095 13.1153 18.4633C13.1762 18.317 13.2076 18.1602 13.2076 18.0018C13.2076 17.8434 13.1762 17.6865 13.1153 17.5403C13.0544 17.3941 12.9651 17.2613 12.8527 17.1498L8.89266 13.2018H18.0007C18.3189 13.2018 18.6241 13.0754 18.8492 12.8503C19.0742 12.6253 19.2007 12.32 19.2007 12.0018C19.2007 11.6835 19.0742 11.3783 18.8492 11.1533C18.6241 10.9282 18.3189 10.8018 18.0007 10.8018Z" fill="white"/>
</svg>
