<svg width="24" height="24" viewBox="0 0 24 24" fill="none" xmlns="http://www.w3.org/2000/svg">
<path d="M15.9961 3.25C19.1758 3.25005 21.7498 5.83547 21.75 9.02441C21.75 12.4069 20.1838 15.3251 18.3262 17.4863C16.4795 19.6348 14.2633 21.1299 12.7998 21.6289L12.7988 21.6279C12.5427 21.7168 12.2534 21.75 12 21.75C11.7463 21.75 11.4566 21.717 11.2002 21.6279V21.6289C9.73675 21.1299 7.52048 19.6348 5.67383 17.4863C3.81615 15.3251 2.25 12.4069 2.25 9.02441C2.25016 5.83547 4.82422 3.25005 8.00391 3.25C9.56119 3.25 10.9687 3.87295 12 4.87988C13.0336 3.87242 14.4466 3.25 15.9961 3.25ZM15.9961 4.75C14.6145 4.75 13.3753 5.4204 12.6016 6.46094C12.46 6.65119 12.2371 6.76367 12 6.76367C11.7629 6.76367 11.54 6.65119 11.3984 6.46094C10.6243 5.41979 9.39377 4.75 8.00391 4.75C5.65788 4.75005 3.75016 6.65865 3.75 9.02441C3.75 11.9339 5.09984 14.5184 6.81055 16.5088C8.53216 18.5118 10.537 19.8179 11.6836 20.209L11.6914 20.2119C11.7393 20.2288 11.8512 20.25 12 20.25C12.1488 20.25 12.2607 20.2288 12.3086 20.2119L12.3164 20.209C13.463 19.8179 15.4678 18.5118 17.1895 16.5088C18.9002 14.5184 20.25 11.9339 20.25 9.02441C20.2498 6.65865 18.3421 4.75005 15.9961 4.75Z" fill="white"/>
</svg>
