<svg width="24" height="24" viewBox="0 0 24 24" fill="none" xmlns="http://www.w3.org/2000/svg">
<path d="M15.9961 3.25C19.1758 3.25005 21.7498 5.83547 21.75 9.02441C21.75 12.4069 20.1838 15.3251 18.3262 17.4863C16.4795 19.6348 14.2633 21.1299 12.7998 21.6289L12.7988 21.6279C12.5427 21.7168 12.2534 21.75 12 21.75C11.7463 21.75 11.4566 21.717 11.2002 21.6279V21.6289C9.73675 21.1299 7.52048 19.6348 5.67383 17.4863C3.81615 15.3251 2.25 12.4069 2.25 9.02441C2.25016 5.83547 4.82422 3.25005 8.00391 3.25C9.56119 3.25 10.9687 3.87295 12 4.87988C13.0336 3.87242 14.4466 3.25 15.9961 3.25Z" fill="white"/>
</svg>
