<svg width="24" height="24" viewBox="0 0 24 24" fill="none" xmlns="http://www.w3.org/2000/svg">
<path d="M15 6.16667C15 5.52233 15.4477 5 16 5C16.5523 5 17 5.52233 17 6.16667V17.8333C17 18.4777 16.5523 19 16 19C15.4477 19 15 18.4777 15 17.8333V6.16667Z" fill="white"/>
<path d="M6 5.74772C6 5.47179 6.33361 5.33361 6.52872 5.52872L6.69021 5.69021C9.20953 8.20953 12.1614 10.2552 15.4049 11.7295C15.6372 11.8351 15.6372 12.1649 15.4049 12.2705C12.1614 13.7448 9.20953 15.7905 6.69021 18.3098L6.52872 18.4713C6.33361 18.6664 6 18.5282 6 18.2523V5.74772Z" fill="white"/>
</svg>
