<svg width="24" height="24" viewBox="0 0 24 24" fill="none" xmlns="http://www.w3.org/2000/svg">
<path d="M8 6.16667C8 5.52233 7.55228 5 7 5C6.44772 5 6 5.52233 6 6.16667V17.8333C6 18.4777 6.44772 19 7 19C7.55228 19 8 18.4777 8 17.8333V6.16667Z" fill="white"/>
<path d="M17 5.74772C17 5.47179 16.6664 5.33361 16.4713 5.52872L16.3098 5.69021C13.7905 8.20953 10.8386 10.2552 7.59508 11.7295C7.36285 11.8351 7.36285 12.1649 7.59508 12.2705C10.8386 13.7448 13.7905 15.7905 16.3098 18.3098L16.4713 18.4713C16.6664 18.6664 17 18.5282 17 18.2523V5.74772Z" fill="white"/>
</svg>
